<svg width="248" height="48" viewBox="0 0 248 48" fill="none" xmlns="http://www.w3.org/2000/svg" role="img" aria-label="SecurePoll RW">
  <defs>
    <clipPath id="ig-wm"><path d="M24 2.5 C31 7 37 13 37 24 C37 35 31 41 24 45.5 C17 41 11 35 11 24 C11 13 17 7 24 2.5 Z"></path></clipPath>
  </defs>
  <g clip-path="url(#ig-wm)">
    <rect x="9" y="1" width="30" height="46" fill="#f2ece0"></rect>
    <rect x="18" y="1" width="12" height="46" fill="#1c1813"></rect>
    <path d="M24 6.00 L30.20 12 L24 18.00 L17.80 12 Z" fill="#f2ece0"></path>
    <path d="M24 8.40 L27.72 12 L24 15.60 L20.28 12 Z" fill="#1c1813"></path>
    <path d="M24 10.32 L25.74 12 L24 13.68 L22.26 12 Z" fill="#f2ece0"></path>
    <path d="M24 17.60 L30.20 24 L24 30.40 L17.80 24 Z" fill="#f2ece0"></path>
    <path d="M24 20.16 L27.72 24 L24 27.84 L20.28 24 Z" fill="#1c1813"></path>
    <path d="M24 22.21 L25.74 24 L24 25.79 L22.26 24 Z" fill="#f2ece0"></path>
    <path d="M24 30.00 L30.20 36 L24 42.00 L17.80 36 Z" fill="#f2ece0"></path>
    <path d="M24 32.40 L27.72 36 L24 39.60 L20.28 36 Z" fill="#1c1813"></path>
    <path d="M24 34.32 L25.74 36 L24 37.68 L22.26 36 Z" fill="#f2ece0"></path>
    <line x1="18" y1="3" x2="18" y2="45" stroke="#1c1813" stroke-width="1.3"></line>
    <line x1="30" y1="3" x2="30" y2="45" stroke="#1c1813" stroke-width="1.3"></line>
    <path d="M14 6.90 L16.10 9 L14 11.10 L11.90 9 Z" fill="#1c1813"></path>
    <path d="M14 13.90 L16.10 16 L14 18.10 L11.90 16 Z" fill="#f2ece0"></path>
    <path d="M14 13.90 L16.10 16 L14 18.10 L11.90 16 Z" fill="none" stroke="#1c1813" stroke-width="0.7"></path>
    <path d="M14 21.90 L16.10 24 L14 26.10 L11.90 24 Z" fill="#1c1813"></path>
    <path d="M14 29.90 L16.10 32 L14 34.10 L11.90 32 Z" fill="#f2ece0"></path>
    <path d="M14 29.90 L16.10 32 L14 34.10 L11.90 32 Z" fill="none" stroke="#1c1813" stroke-width="0.7"></path>
    <path d="M14 36.90 L16.10 39 L14 41.10 L11.90 39 Z" fill="#1c1813"></path>
    <path d="M34 6.90 L36.10 9 L34 11.10 L31.90 9 Z" fill="#1c1813"></path>
    <path d="M34 13.90 L36.10 16 L34 18.10 L31.90 16 Z" fill="#f2ece0"></path>
    <path d="M34 13.90 L36.10 16 L34 18.10 L31.90 16 Z" fill="none" stroke="#1c1813" stroke-width="0.7"></path>
    <path d="M34 21.90 L36.10 24 L34 26.10 L31.90 24 Z" fill="#1c1813"></path>
    <path d="M34 29.90 L36.10 32 L34 34.10 L31.90 32 Z" fill="#f2ece0"></path>
    <path d="M34 29.90 L36.10 32 L34 34.10 L31.90 32 Z" fill="none" stroke="#1c1813" stroke-width="0.7"></path>
    <path d="M34 36.90 L36.10 39 L34 41.10 L31.90 39 Z" fill="#1c1813"></path>
  </g>
  <path d="M24 2.5 C31 7 37 13 37 24 C37 35 31 41 24 45.5 C17 41 11 35 11 24 C11 13 17 7 24 2.5 Z" fill="none" stroke="#1c1813" stroke-width="2.4" stroke-linejoin="round"></path>
  <text x="56" y="29" font-family="Zilla Slab, Georgia, serif" font-size="22" font-weight="600" letter-spacing="-0.4" fill="#161c26">SecurePoll</text>
  <rect x="186" y="13" width="34" height="22" rx="5" fill="#161c26"></rect>
  <text x="203" y="29" text-anchor="middle" font-family="Hanken Grotesk, sans-serif" font-size="13" font-weight="700" letter-spacing="0.5" fill="#ffffff">RW</text>
</svg>